<?xml version="1.0" encoding="UTF-8" standalone="no"?>
<!-- Created with Inkscape (http://www.inkscape.org/) -->

<svg
   xmlns:dc="http://purl.org/dc/elements/1.1/"
   xmlns:cc="http://creativecommons.org/ns#"
   xmlns:rdf="http://www.w3.org/1999/02/22-rdf-syntax-ns#"
   xmlns:svg="http://www.w3.org/2000/svg"
   xmlns="http://www.w3.org/2000/svg"
   xmlns:sodipodi="http://sodipodi.sourceforge.net/DTD/sodipodi-0.dtd"
   xmlns:inkscape="http://www.inkscape.org/namespaces/inkscape"
   width="30.233158mm"
   height="30.239861mm"
   viewBox="0 0 30.233158 30.239861"
   version="1.1"
   id="svg2855"
   inkscape:version="0.92.3 (2405546, 2018-03-11)"
   sodipodi:docname="dientes.svg">
  <defs
     id="defs2849">
    <clipPath
       clipPathUnits="userSpaceOnUse"
       id="clipPath284">
      <path
         d="M 71.2603,414.763 H 129.39 V 355.928 H 71.2603 Z"
         id="path282"
         inkscape:connector-curvature="0" />
    </clipPath>
    <clipPath
       clipPathUnits="userSpaceOnUse"
       id="clipPath308">
      <path
         d="M 90.4834,414.765 H 113.129 V 387.279 H 90.4834 Z"
         id="path306"
         inkscape:connector-curvature="0" />
    </clipPath>
    <clipPath
       clipPathUnits="userSpaceOnUse"
       id="clipPath324">
      <path
         d="M 71.2578,395.541 H 98.7432 V 372.894 H 71.2578 Z"
         id="path322"
         inkscape:connector-curvature="0" />
    </clipPath>
    <clipPath
       clipPathUnits="userSpaceOnUse"
       id="clipPath32">
      <path
         d="m 172.846,419.929 h 63.413 v -64.416 h -63.413 z"
         id="path30"
         inkscape:connector-curvature="0" />
    </clipPath>
    <clipPath
       clipPathUnits="userSpaceOnUse"
       id="clipPath68">
      <path
         d="m 194.249,389.167 h 2.419 v -6.976 h -2.419 z"
         id="path66"
         inkscape:connector-curvature="0" />
    </clipPath>
    <clipPath
       clipPathUnits="userSpaceOnUse"
       id="clipPath88">
      <path
         d="m 182.895,419.764 h 13.774 v -34.621 h -13.774 z"
         id="path86"
         inkscape:connector-curvature="0" />
    </clipPath>
    <clipPath
       clipPathUnits="userSpaceOnUse"
       id="clipPath116">
      <path
         d="m 180.474,403.877 h 4.84 v -4.839 h -4.84 z"
         id="path114"
         inkscape:connector-curvature="0" />
    </clipPath>
    <clipPath
       clipPathUnits="userSpaceOnUse"
       id="clipPath1024">
      <path
         d="m 282.342,409.691 h 60.883 v -54.18 h -60.883 z"
         id="path1022"
         inkscape:connector-curvature="0" />
    </clipPath>
    <clipPath
       clipPathUnits="userSpaceOnUse"
       id="clipPath1052">
      <path
         d="m 283.202,406.331 h 32.976 v -25.352 h -32.976 z"
         id="path1050"
         inkscape:connector-curvature="0" />
    </clipPath>
    <clipPath
       clipPathUnits="userSpaceOnUse"
       id="clipPath152">
      <path
         d="m 390.112,408.137 h 59.493 v -52.266 h -59.493 z"
         id="path150"
         inkscape:connector-curvature="0" />
    </clipPath>
    <clipPath
       clipPathUnits="userSpaceOnUse"
       id="clipPath436">
      <path
         d="m 76.1875,311.719 h 52.4375 v -57.38 H 76.1875 Z"
         id="path434"
         inkscape:connector-curvature="0" />
    </clipPath>
    <clipPath
       clipPathUnits="userSpaceOnUse"
       id="clipPath362">
      <path
         d="m 174.225,300.873 h 60.873 V 254.25 h -60.873 z"
         id="path360"
         inkscape:connector-curvature="0" />
    </clipPath>
    <clipPath
       clipPathUnits="userSpaceOnUse"
       id="clipPath468">
      <path
         d="m 298.652,317.979 h 43.444 v -63.754 h -43.444 z"
         id="path466"
         inkscape:connector-curvature="0" />
    </clipPath>
    <clipPath
       clipPathUnits="userSpaceOnUse"
       id="clipPath514">
      <path
         d="m 303.433,318.555 h 7.985 v -53.114 h -7.985 z"
         id="path512"
         inkscape:connector-curvature="0" />
    </clipPath>
    <clipPath
       clipPathUnits="userSpaceOnUse"
       id="clipPath534">
      <path
         d="m 394.7,310.585 h 55.464 V 253.477 H 394.7 Z"
         id="path532"
         inkscape:connector-curvature="0" />
    </clipPath>
    <clipPath
       clipPathUnits="userSpaceOnUse"
       id="clipPath578">
      <path
         d="m 400.235,305.683 h 20.764 V 278.91 h -20.764 z"
         id="path576"
         inkscape:connector-curvature="0" />
    </clipPath>
    <clipPath
       clipPathUnits="userSpaceOnUse"
       id="clipPath594">
      <path
         d="m 417.893,311.556 h 6.46 v -9.735 h -6.46 z"
         id="path592"
         inkscape:connector-curvature="0" />
    </clipPath>
    <clipPath
       clipPathUnits="userSpaceOnUse"
       id="clipPath734">
      <path
         d="M 73.8125,208.741 H 128.991 V 151.965 H 73.8125 Z"
         id="path732"
         inkscape:connector-curvature="0" />
    </clipPath>
    <clipPath
       clipPathUnits="userSpaceOnUse"
       id="clipPath760">
      <path
         d="m 78.6353,203.375 h 21.7127 v -2.04 H 78.6353 Z"
         id="path758"
         inkscape:connector-curvature="0" />
    </clipPath>
    <clipPath
       clipPathUnits="userSpaceOnUse"
       id="clipPath774">
      <path
         d="m 89.3618,199.823 h 10.9862 v -2.04 H 89.3618 Z"
         id="path772"
         inkscape:connector-curvature="0" />
    </clipPath>
    <clipPath
       clipPathUnits="userSpaceOnUse"
       id="clipPath788">
      <path
         d="m 89.3618,196.272 h 10.9862 v -2.04 H 89.3618 Z"
         id="path786"
         inkscape:connector-curvature="0" />
    </clipPath>
    <clipPath
       clipPathUnits="userSpaceOnUse"
       id="clipPath802">
      <path
         d="m 89.3618,192.721 h 10.9862 v -2.04 H 89.3618 Z"
         id="path800"
         inkscape:connector-curvature="0" />
    </clipPath>
    <clipPath
       clipPathUnits="userSpaceOnUse"
       id="clipPath816">
      <path
         d="m 78.6353,189.17 h 21.7127 v -2.039 H 78.6353 Z"
         id="path814"
         inkscape:connector-curvature="0" />
    </clipPath>
    <clipPath
       clipPathUnits="userSpaceOnUse"
       id="clipPath830">
      <path
         d="m 78.6353,185.619 h 10.5126 v -2.04 H 78.6353 Z"
         id="path828"
         inkscape:connector-curvature="0" />
    </clipPath>
    <clipPath
       clipPathUnits="userSpaceOnUse"
       id="clipPath844">
      <path
         d="m 78.6353,182.068 h 10.5126 v -2.041 H 78.6353 Z"
         id="path842"
         inkscape:connector-curvature="0" />
    </clipPath>
    <clipPath
       clipPathUnits="userSpaceOnUse"
       id="clipPath858">
      <path
         d="m 78.6353,178.517 h 10.5126 v -2.039 H 78.6353 Z"
         id="path856"
         inkscape:connector-curvature="0" />
    </clipPath>
    <clipPath
       clipPathUnits="userSpaceOnUse"
       id="clipPath184">
      <path
         d="m 181.407,206.457 h 54.802 v -54.981 h -54.802 z"
         id="path182"
         inkscape:connector-curvature="0" />
    </clipPath>
    <clipPath
       clipPathUnits="userSpaceOnUse"
       id="clipPath216">
      <path
         d="m 196.562,210.224 h 18.923 v -41.251 h -18.923 z"
         id="path214"
         inkscape:connector-curvature="0" />
    </clipPath>
    <clipPath
       clipPathUnits="userSpaceOnUse"
       id="clipPath690">
      <path
         d="m 276.71,190.82 h 64.995 V 152.422 H 276.71 Z"
         id="path688"
         inkscape:connector-curvature="0" />
    </clipPath>
    <clipPath
       clipPathUnits="userSpaceOnUse"
       id="clipPath714">
      <path
         d="m 276.575,190.708 h 53.644 v -14.025 h -53.644 z"
         id="path712"
         inkscape:connector-curvature="0" />
    </clipPath>
    <clipPath
       clipPathUnits="userSpaceOnUse"
       id="clipPath618">
      <path
         d="m 404.312,209.219 h 45.727 v -56.872 h -45.727 z"
         id="path616"
         inkscape:connector-curvature="0" />
    </clipPath>
    <clipPath
       clipPathUnits="userSpaceOnUse"
       id="clipPath638">
      <path
         d="m 394.216,212.551 h 34.63 v -25.362 h -34.63 z"
         id="path636"
         inkscape:connector-curvature="0" />
    </clipPath>
    <clipPath
       clipPathUnits="userSpaceOnUse"
       id="clipPath884">
      <path
         d="M 80.6538,100.696 H 127.794 V 50.7676 H 80.6538 Z"
         id="path882"
         inkscape:connector-curvature="0" />
    </clipPath>
    <clipPath
       clipPathUnits="userSpaceOnUse"
       id="clipPath932">
      <path
         d="M 76.4678,103.977 H 89.9795 V 65.2578 H 76.4678 Z"
         id="path930"
         inkscape:connector-curvature="0" />
    </clipPath>
  </defs>
  <sodipodi:namedview
     id="base"
     pagecolor="#ffffff"
     bordercolor="#666666"
     borderopacity="1.0"
     inkscape:pageopacity="0.0"
     inkscape:pageshadow="2"
     inkscape:zoom="0.35"
     inkscape:cx="-538.68806"
     inkscape:cy="-331.3894"
     inkscape:document-units="mm"
     inkscape:current-layer="layer1"
     showgrid="false"
     fit-margin-top="1"
     fit-margin-right="1"
     fit-margin-bottom="1"
     fit-margin-left="1"
     inkscape:window-width="1853"
     inkscape:window-height="1025"
     inkscape:window-x="67"
     inkscape:window-y="27"
     inkscape:window-maximized="1" />
  <metadata
     id="metadata2852">
    <rdf:RDF>
      <cc:Work
         rdf:about="">
        <dc:format>image/svg+xml</dc:format>
        <dc:type
           rdf:resource="http://purl.org/dc/dcmitype/StillImage" />
        <dc:title></dc:title>
      </cc:Work>
    </rdf:RDF>
  </metadata>
  <g
     inkscape:label="Capa 1"
     inkscape:groupmode="layer"
     id="layer1"
     transform="translate(-76.382046,-30.913358)">
    <g
       transform="matrix(0.35277777,0,0,-0.35277777,59.965443,77.646904)"
       id="g5578">
      <g
         transform="translate(129.4009,89.6094)"
         id="g874">
        <path
           inkscape:connector-curvature="0"
           id="path876"
           style="fill:#4ab9c5;fill-opacity:1;fill-rule:nonzero;stroke:none"
           d="m 0,0 c 0,-0.271 0,-0.529 -0.01,-0.799 -0.1,-5.449 -1.298,-10.629 -3.373,-15.34 -4.941,-11.208 -14.871,-19.711 -26.987,-22.705 -1.667,-0.419 -3.373,-0.719 -5.119,-0.919 -0.749,-0.089 -1.508,-0.138 -2.266,-0.188 -0.748,-0.04 -1.508,-0.07 -2.256,-0.07 -22.106,0 -40.02,17.914 -40.02,40.021 0,22.105 17.914,40.029 40.02,40.029 21.448,0 38.953,-16.885 39.971,-38.084 C -0.01,1.307 0,0.658 0,0" />
      </g>
      <g
         id="g878">
        <g
           id="g880" />
        <g
           id="g892">
          <g
             style="opacity:0.30000299"
             id="g890"
             clip-path="url(#clipPath884)">
            <g
               id="g888"
               transform="translate(80.6538,68.2598)">
              <path
                 inkscape:connector-curvature="0"
                 id="path886"
                 style="fill:#4ab9c5;fill-opacity:1;fill-rule:nonzero;stroke:none"
                 d="m 0,0 18.382,-17.492 c 12.114,2.994 22.042,11.497 26.982,22.703 0.697,1.582 1.285,3.222 1.776,4.902 L 21.943,32.437 Z" />
            </g>
          </g>
        </g>
      </g>
      <g
         transform="translate(101.7085,88.1875)"
         id="g894">
        <path
           inkscape:connector-curvature="0"
           id="path896"
           style="fill:#ffffff;fill-opacity:1;fill-rule:nonzero;stroke:none"
           d="m 0,0 c 1.457,4.452 3.657,11.179 -1.188,14.235 -1.655,1.046 -3.262,1.554 -4.912,1.554 -1.78,0 -3.234,-0.616 -4.295,-1.066 -0.487,-0.206 -1.092,-0.463 -1.334,-0.463 -0.241,0 -0.846,0.257 -1.333,0.463 -1.061,0.45 -2.514,1.066 -4.293,1.066 -1.652,0 -3.258,-0.508 -4.915,-1.554 -4.844,-3.056 -2.643,-9.783 -1.187,-14.235 0.45,-1.378 0.876,-2.678 0.939,-3.381 0.112,-1.235 -0.012,-2.817 -0.145,-4.49 -0.211,-2.661 -0.427,-5.412 0.204,-7.729 1.07,-3.928 4.48,-6.782 4.626,-6.9 0.317,-0.264 0.702,-0.407 1.095,-0.428 0.034,-0.002 0.07,-0.002 0.104,-0.002 1.033,0 1.872,0.839 1.872,1.871 0,0.171 -0.023,0.334 -0.066,0.494 -0.159,0.941 -0.976,6.248 0.254,9.633 0.917,2.526 2.267,3.853 2.845,4.205 0.579,-0.352 1.929,-1.679 2.846,-4.205 1.347,-3.708 0.24,-9.719 0.229,-9.779 -0.146,-0.775 0.208,-1.558 0.886,-1.958 0.296,-0.175 0.625,-0.261 0.952,-0.261 0.426,0 0.85,0.145 1.192,0.43 0.145,0.118 3.556,2.972 4.626,6.9 0.633,2.32 0.415,5.071 0.204,7.731 -0.133,1.674 -0.258,3.253 -0.145,4.49 C -0.876,-2.678 -0.451,-1.378 0,0" />
      </g>
      <g
         transform="translate(87.4829,101.9326)"
         id="g898">
        <path
           inkscape:connector-curvature="0"
           id="path900"
           style="fill:#f1f2f2;fill-opacity:1;fill-rule:nonzero;stroke:none"
           d="M 0,0 14.497,-2.922 15.354,1.334 0.858,4.256 Z" />
      </g>
      <g
         transform="translate(73.1128,109.2578)"
         id="g902">
        <path
           inkscape:connector-curvature="0"
           id="path904"
           style="fill:#edc936;fill-opacity:1;fill-rule:nonzero;stroke:none"
           d="M 0,0 30.789,-6.206 31.298,-3.679 0.517,2.524 C 0.514,2.525 0.512,2.526 0.509,2.526 -0.189,2.667 -0.869,2.217 -1.009,1.518 -1.15,0.82 -0.698,0.141 0,0" />
      </g>
      <g
         transform="translate(100.7422,103.6885)"
         id="g906">
        <path
           inkscape:connector-curvature="0"
           id="path908"
           style="fill:#e6e7e8;fill-opacity:1;fill-rule:nonzero;stroke:none"
           d="M 0,0 1.13,-0.228 0.273,-4.483 -0.858,-4.256 Z" />
      </g>
      <g
         transform="translate(97.8833,104.2656)"
         id="g910">
        <path
           inkscape:connector-curvature="0"
           id="path912"
           style="fill:#e6e7e8;fill-opacity:1;fill-rule:nonzero;stroke:none"
           d="M 0,0 1.13,-0.228 0.273,-4.484 -0.858,-4.256 Z" />
      </g>
      <g
         transform="translate(95.0234,104.8418)"
         id="g914">
        <path
           inkscape:connector-curvature="0"
           id="path916"
           style="fill:#e6e7e8;fill-opacity:1;fill-rule:nonzero;stroke:none"
           d="m 0,0 1.13,-0.228 -0.857,-4.256 -1.13,0.227 z" />
      </g>
      <g
         transform="translate(92.1646,105.418)"
         id="g918">
        <path
           inkscape:connector-curvature="0"
           id="path920"
           style="fill:#e6e7e8;fill-opacity:1;fill-rule:nonzero;stroke:none"
           d="M 0,0 1.13,-0.229 0.273,-4.484 -0.858,-4.257 Z" />
      </g>
      <g
         transform="translate(89.3047,105.9941)"
         id="g922">
        <path
           inkscape:connector-curvature="0"
           id="path924"
           style="fill:#e6e7e8;fill-opacity:1;fill-rule:nonzero;stroke:none"
           d="m 0,0 1.131,-0.228 -0.858,-4.255 -1.13,0.227 z" />
      </g>
      <g
         id="g926">
        <g
           id="g928" />
        <g
           id="g940">
          <g
             style="opacity:0.30000299"
             id="g938"
             clip-path="url(#clipPath932)">
            <g
               id="g936"
               transform="translate(89.9795,102.4473)">
              <path
                 inkscape:connector-curvature="0"
                 id="path934"
                 style="fill:#d1d3d4;fill-opacity:1;fill-rule:nonzero;stroke:none"
                 d="m 0,0 c -0.241,0 -0.846,0.257 -1.333,0.463 -1.061,0.45 -2.514,1.066 -4.293,1.066 -1.652,0 -3.258,-0.508 -4.915,-1.553 -4.844,-3.057 -2.643,-9.784 -1.187,-14.236 0.45,-1.378 0.876,-2.678 0.939,-3.381 0.112,-1.235 -0.012,-2.817 -0.145,-4.49 -0.211,-2.661 -0.427,-5.412 0.204,-7.728 1.07,-3.929 4.48,-6.783 4.626,-6.901 0.317,-0.263 0.702,-0.407 1.095,-0.428 0.034,-10e-4 0.07,-10e-4 0.104,-10e-4 1.033,0 1.872,0.838 1.872,1.871 0,0.171 -0.023,0.334 -0.066,0.493 -0.159,0.941 -0.976,6.248 0.254,9.634 0.917,2.525 2.267,3.852 2.845,4.205 z" />
            </g>
          </g>
        </g>
      </g>
    </g>
  </g>
</svg>
